<mxfile host="app.diagrams.net" modified="2024-04-09T15:43:24.685Z" agent="Mozilla/5.0 (X11; Linux x86_64; rv:109.0) Gecko/20100101 Firefox/115.0" version="24.2.2" etag="ej1wq_OGbvUTcTvYXxfk" type="github">
  <diagram name="Page-1" id="qU32i-3bdTiW24x1p5kZ">
    <mxGraphModel>
      <root>
        <mxCell id="0" />
        <mxCell id="1" parent="0" />
      </root>
    </mxGraphModel>
  </diagram>
</mxfile>
